<?xml version="1.0" encoding="UTF-8"?>
<svg version="1.1" xmlns="http://www.w3.org/2000/svg" width="180" height="180">
<path d="M0 0 C1.6875 1.3125 1.6875 1.3125 3 3 C3.886875 3.515625 4.77375 4.03125 5.6875 4.5625 C6.450625 5.036875 7.21375 5.51125 8 6 C8 6.66 8 7.32 8 8 C8.99 8 9.98 8 11 8 C11 8.66 11 9.32 11 10 C11.598125 10.103125 12.19625 10.20625 12.8125 10.3125 C15.30869017 11.09701691 16.25731865 12.09889308 18 14 C18.99 14.495 18.99 14.495 20 15 C20 25.23 20 35.46 20 46 C17.69 46.66 15.38 47.32 13 48 C12.505 48.99 12.505 48.99 12 50 C13.32 50.66 14.64 51.32 16 52 C16.125 54.875 16.125 54.875 16 58 C13.41282501 60.58717499 11.7128217 60.54055528 8.125 61.0625 C4.69632506 61.5721679 1.34607961 62.08669808 -2 63 C-2 65.64 -2 68.28 -2 71 C0.31 71.99 2.62 72.98 5 74 C5.495 78.95 5.495 78.95 6 84 C10.62 84 15.24 84 20 84 C20 89.28 20 94.56 20 100 C12.25 101.125 12.25 101.125 10 100 C9.375 97.4375 9.375 97.4375 9 95 C8.38511719 95.01160156 7.77023438 95.02320312 7.13671875 95.03515625 C6.32847656 95.04417969 5.52023438 95.05320312 4.6875 95.0625 C3.88699219 95.07410156 3.08648437 95.08570312 2.26171875 95.09765625 C0 95 0 95 -3 94 C-3 100.6 -3 107.2 -3 114 C-3.66 114 -4.32 114 -5 114 C-4.67 126.54 -4.34 139.08 -4 152 C-2.02 152.99 -2.02 152.99 0 154 C0 155.98 0 157.96 0 160 C-0.99 160.33 -1.98 160.66 -3 161 C-3 161.99 -3 162.98 -3 164 C-7.571279 163.45144652 -11.67435795 162.58255197 -16 161 C-16.83288874 154.74692761 -17.03863773 149.23182639 -16 143 C-17.299375 143.185625 -18.59875 143.37125 -19.9375 143.5625 C-22.15234375 143.87890625 -22.15234375 143.87890625 -24 144 C-24.33 143.67 -24.66 143.34 -25 143 C-26.39244998 142.84170042 -27.78953608 142.72334922 -29.1875 142.625 C-33.38053406 142.22566342 -36.24572436 140.92079219 -40 139 C-42.01954441 139.33820153 -42.01954441 139.33820153 -44 140 C-46.00946222 139.72949547 -48.01354224 139.40632091 -50 139 C-51.1434356 141.20519723 -52.13225922 143.35544665 -53 145.6875 C-54 148 -54 148 -56 149 C-56.72693904 150.97888961 -57.39816251 152.97954558 -58 155 C-58.99 155 -59.98 155 -61 155 C-61 156.32 -61 157.64 -61 159 C-63.78754885 160.8583659 -65.81040793 161.07524976 -69.0625 160.9375 C-70.361875 160.958125 -71.66125 160.97875 -73 161 C-73.46921875 161.49242187 -73.9384375 161.98484375 -74.421875 162.4921875 C-76 164 -76 164 -78.48046875 164.29296875 C-79.37378906 164.25816406 -80.26710938 164.22335938 -81.1875 164.1875 C-82.08855469 164.16042969 -82.98960938 164.13335937 -83.91796875 164.10546875 C-84.60503906 164.07066406 -85.29210937 164.03585938 -86 164 C-87.95901319 158.46866863 -88.09606788 154.77926701 -87 149 C-85.03177114 147.03177114 -81.65191291 147.33751619 -79 147 C-79 146.34 -79 145.68 -79 145 C-80.32 144.67 -81.64 144.34 -83 144 C-83 142.35 -83 140.7 -83 139 C-84.32 138.34 -85.64 137.68 -87 137 C-87.13794954 129.93391809 -86.74805717 123.02639415 -86 116 C-86.66 116 -87.32 116 -88 116 C-88 114.68 -88 113.36 -88 112 C-88.99 111.67 -89.98 111.34 -91 111 C-92.50156874 107.99686252 -92.09281204 105.20932478 -92.0625 101.875 C-92.05347656 100.59367187 -92.04445312 99.31234375 -92.03515625 97.9921875 C-92.02355469 97.00476563 -92.01195312 96.01734375 -92 95 C-92.66 95 -93.32 95 -94 95 C-95.16673629 91.41088647 -94.96589508 88.28861536 -94.6953125 84.546875 C-94.60636719 83.28746094 -94.51742187 82.02804688 -94.42578125 80.73046875 C-94.32652344 79.41691406 -94.22726563 78.10335937 -94.125 76.75 C-94.03347656 75.45191406 -93.94195312 74.15382813 -93.84765625 72.81640625 C-92.54498106 54.81747159 -92.54498106 54.81747159 -90 51 C-87.69 51.33 -85.38 51.66 -83 52 C-82.87625 52.928125 -82.87625 52.928125 -82.75 53.875 C-82.18741541 56.18437567 -82.18741541 56.18437567 -79.9375 57.25 C-79.298125 57.4975 -78.65875 57.745 -78 58 C-78 58.99 -78 59.98 -78 61 C-76.68 61.66 -75.36 62.32 -74 63 C-74 63.99 -74 64.98 -74 66 C-72.515 66.495 -72.515 66.495 -71 67 C-69.31390158 69.39944776 -68.13836232 71.37736957 -67.5 74.25 C-67.2525 75.11625 -67.2525 75.11625 -67 76 C-65.515 76.495 -65.515 76.495 -64 77 C-63.67 75.35 -63.34 73.7 -63 72 C-62.01 71.67 -61.02 71.34 -60 71 C-59.67 69.35 -59.34 67.7 -59 66 C-57.68 66 -56.36 66 -55 66 C-55 64.86457764 -55 63.72915527 -55 62.55932617 C-55 49.03955078 -55 35.51977539 -55 22 C-54.195625 21.79375 -53.39125 21.5875 -52.5625 21.375 C-51.716875 20.92125 -50.87125 20.4675 -50 20 C-49.855625 19.030625 -49.71125 18.06125 -49.5625 17.0625 C-49 14 -49 14 -46.3125 12.125 C-42.96289494 10.98739828 -40.50663393 10.74952615 -37 11 C-37 10.34 -37 9.68 -37 9 C-33.78021152 8.00259184 -30.55927812 7.00931825 -27.3359375 6.0234375 C-25.48390167 5.45524852 -23.63329675 4.88208482 -21.7890625 4.2890625 C-18.0997329 3.13719036 -14.85844688 2.81178308 -11 3 C-11 2.34 -11 1.68 -11 1 C-7.25322601 -0.24892466 -3.92099667 -0.4705196 0 0 Z " fill="#7FCD33" transform="translate(127,8)"/>
<path d="M0 0 C0.95777344 0.37125 1.91554688 0.7425 2.90234375 1.125 C3.61519531 1.41375 4.32804687 1.7025 5.0625 2 C5.0625 2.33 5.0625 2.66 5.0625 3 C3.0825 3 1.1025 3 -0.9375 3 C-0.9375 3.99 -0.9375 4.98 -0.9375 6 C-3.2475 6.66 -5.5575 7.32 -7.9375 8 C-7.9375 10.64 -7.9375 13.28 -7.9375 16 C-5.6275 16.99 -3.3175 17.98 -0.9375 19 C-0.4425 23.95 -0.4425 23.95 0.0625 29 C4.6825 29 9.3025 29 14.0625 29 C14.0625 34.28 14.0625 39.56 14.0625 45 C6.3125 46.125 6.3125 46.125 4.0625 45 C3.4375 42.4375 3.4375 42.4375 3.0625 40 C2.44761719 40.01160156 1.83273438 40.02320313 1.19921875 40.03515625 C0.39097656 40.04417969 -0.41726562 40.05320313 -1.25 40.0625 C-2.05050781 40.07410156 -2.85101563 40.08570313 -3.67578125 40.09765625 C-5.9375 40 -5.9375 40 -8.9375 39 C-8.9375 45.6 -8.9375 52.2 -8.9375 59 C-9.5975 59 -10.2575 59 -10.9375 59 C-10.6075 71.54 -10.2775 84.08 -9.9375 97 C-8.6175 97.66 -7.2975 98.32 -5.9375 99 C-5.9375 100.98 -5.9375 102.96 -5.9375 105 C-6.9275 105.33 -7.9175 105.66 -8.9375 106 C-8.9375 106.99 -8.9375 107.98 -8.9375 109 C-13.508779 108.45144652 -17.61185795 107.58255197 -21.9375 106 C-22.77038874 99.74692761 -22.97613773 94.23182639 -21.9375 88 C-23.236875 88.185625 -24.53625 88.37125 -25.875 88.5625 C-28.08984375 88.87890625 -28.08984375 88.87890625 -29.9375 89 C-30.2675 88.67 -30.5975 88.34 -30.9375 88 C-33.19165378 87.71710819 -35.44590656 87.5522881 -37.7109375 87.37890625 C-39.9375 87 -39.9375 87 -42.9375 85 C-42.9375 84.01 -42.9375 83.02 -42.9375 82 C-44.20207031 82.02320313 -45.46664062 82.04640625 -46.76953125 82.0703125 C-48.4296816 82.08907126 -50.08983833 82.10727135 -51.75 82.125 C-52.58337891 82.14175781 -53.41675781 82.15851563 -54.27539062 82.17578125 C-55.07783203 82.18222656 -55.88027344 82.18867188 -56.70703125 82.1953125 C-57.81461792 82.21102295 -57.81461792 82.21102295 -58.94458008 82.22705078 C-60.9375 82 -60.9375 82 -63.9375 80 C-63.9375 79.01 -63.9375 78.02 -63.9375 77 C-54.86301747 76.88842849 -45.97471311 77.05757182 -36.9375 78 C-37.9275 75.03 -37.9275 75.03 -38.9375 72 C-35.6375 72 -32.3375 72 -28.9375 72 C-29.68 69.9271875 -29.68 69.9271875 -30.4375 67.8125 C-31.57810429 64.41746189 -32.28761048 61.61780831 -31.9375 58 C-28.9675 58 -25.9975 58 -22.9375 58 C-22.9375 53.38 -22.9375 48.76 -22.9375 44 C-21.9475 44 -20.9575 44 -19.9375 44 C-19.94910156 43.00097656 -19.96070313 42.00195312 -19.97265625 40.97265625 C-19.98167969 39.68230469 -19.99070313 38.39195313 -20 37.0625 C-20.01160156 35.77472656 -20.02320313 34.48695312 -20.03515625 33.16015625 C-19.9375 30 -19.9375 30 -18.9375 29 C-16.60452567 28.95907063 -14.27044775 28.95758277 -11.9375 29 C-11.9375 28.34 -11.9375 27.68 -11.9375 27 C-13.5875 27 -15.2375 27 -16.9375 27 C-16.9375 26.34 -16.9375 25.68 -16.9375 25 C-17.5975 25 -18.2575 25 -18.9375 25 C-21.9375 19.375 -21.9375 19.375 -21.9375 16 C-22.9275 16 -23.9175 16 -24.9375 16 C-24.99808594 15.28972656 -25.05867188 14.57945313 -25.12109375 13.84765625 C-25.20488281 12.92855469 -25.28867188 12.00945312 -25.375 11.0625 C-25.45621094 10.14597656 -25.53742188 9.22945312 -25.62109375 8.28515625 C-25.69794976 6.03840268 -25.69794976 6.03840268 -26.9375 5 C-26.97813832 3.33382885 -26.980221 1.66611905 -26.9375 0 C-24.75097261 -0.33965474 -22.56321975 -0.67142477 -20.375 -1 C-19.15683594 -1.185625 -17.93867187 -1.37125 -16.68359375 -1.5625 C-10.5345464 -2.28063692 -5.79494302 -2.28936021 0 0 Z " fill="#407D15" transform="translate(132.9375,63)"/>
<path d="M0 0 C-2.61941217 1.74627478 -4.03824877 2.38722388 -7 3 C-7 5.64 -7 8.28 -7 11 C-4.69 11.99 -2.38 12.98 0 14 C0.495 18.95 0.495 18.95 1 24 C5.62 24 10.24 24 15 24 C15 29.28 15 34.56 15 40 C7.25 41.125 7.25 41.125 5 40 C4.375 37.4375 4.375 37.4375 4 35 C3.38511719 35.01160156 2.77023438 35.02320313 2.13671875 35.03515625 C1.32847656 35.04417969 0.52023438 35.05320313 -0.3125 35.0625 C-1.11300781 35.07410156 -1.91351563 35.08570313 -2.73828125 35.09765625 C-5 35 -5 35 -8 34 C-8 40.6 -8 47.2 -8 54 C-8.66 54 -9.32 54 -10 54 C-9.67 66.54 -9.34 79.08 -9 92 C-7.68 92.66 -6.36 93.32 -5 94 C-5 95.98 -5 97.96 -5 100 C-5.99 100.33 -6.98 100.66 -8 101 C-8 101.99 -8 102.98 -8 104 C-12.571279 103.45144652 -16.67435795 102.58255197 -21 101 C-21.83288874 94.74692761 -22.03863773 89.23182639 -21 83 C-22.299375 83.185625 -23.59875 83.37125 -24.9375 83.5625 C-27.15234375 83.87890625 -27.15234375 83.87890625 -29 84 C-29.33 83.67 -29.66 83.34 -30 83 C-32.28684338 82.7180604 -34.57363273 82.55222995 -36.87109375 82.37890625 C-39 82 -39 82 -41 80 C-33.59760355 79.87113817 -26.36040917 80.20274098 -19 81 C-18.67 82.98 -18.34 84.96 -18 87 C-16.515 86.505 -16.515 86.505 -15 86 C-14.67 77.09 -14.34 68.18 -14 59 C-13.34 59 -12.68 59 -12 59 C-12 56.36 -12 53.72 -12 51 C-11.34 51 -10.68 51 -10 51 C-10 45.06 -10 39.12 -10 33 C-7.36 32.67 -4.72 32.34 -2 32 C-2 30.68 -2 29.36 -2 28 C-2.33 27.67 -2.66 27.34 -3 27 C-3.07244053 24.98035801 -3.08377188 22.95832876 -3.0625 20.9375 C-3.05347656 19.83277344 -3.04445312 18.72804688 -3.03515625 17.58984375 C-3.02355469 16.73519531 -3.01195312 15.88054687 -3 15 C-5.31 14.67 -7.62 14.34 -10 14 C-10 9.71 -10 5.42 -10 1 C-6.78548731 -0.60725635 -3.56387464 -0.05748185 0 0 Z " fill="#C9E6AE" transform="translate(132,68)"/>
<path d="M0 0 C1.6875 1.3125 1.6875 1.3125 3 3 C3.886875 3.515625 4.77375 4.03125 5.6875 4.5625 C6.450625 5.036875 7.21375 5.51125 8 6 C8 6.66 8 7.32 8 8 C8.99 8 9.98 8 11 8 C11 8.66 11 9.32 11 10 C11.8971875 10.1546875 11.8971875 10.1546875 12.8125 10.3125 C15.30869017 11.09701691 16.25731865 12.09889308 18 14 C18.66 14.33 19.32 14.66 20 15 C20 25.23 20 35.46 20 46 C17.69 46.66 15.38 47.32 13 48 C12.67 48.66 12.34 49.32 12 50 C13.32 50.66 14.64 51.32 16 52 C16.125 54.875 16.125 54.875 16 58 C14 60 14 60 11.8359375 60.1953125 C11.02382812 60.17210937 10.21171875 60.14890625 9.375 60.125 C8.55773437 60.10695312 7.74046875 60.08890625 6.8984375 60.0703125 C6.27195313 60.04710937 5.64546875 60.02390625 5 60 C5 59.34 5 58.68 5 58 C6.485 57.505 6.485 57.505 8 57 C1.47059106 54.04328652 -3.87399867 53.64631979 -11 54 C-8.09907498 52.06604999 -7.10325263 51.69868059 -3.8125 51.375 C-2.554375 51.25125 -1.29625 51.1275 0 51 C0 49.68 0 48.36 0 47 C4.29 46.01 8.58 45.02 13 44 C13 43.01 13 42.02 13 41 C12.44570312 40.75765625 11.89140625 40.5153125 11.3203125 40.265625 C10.59585938 39.93046875 9.87140625 39.5953125 9.125 39.25 C8.40570313 38.92515625 7.68640625 38.6003125 6.9453125 38.265625 C4.55569635 36.71093498 4.0395497 35.63901075 3 33 C2.78881836 30.46630859 2.78881836 30.46630859 2.83984375 27.6484375 C2.85080078 26.63265625 2.86175781 25.616875 2.87304688 24.5703125 C2.90495117 22.98863281 2.90495117 22.98863281 2.9375 21.375 C2.9718445 19.27871325 3.0020054 17.18235245 3.02734375 15.0859375 C3.04531006 14.1582959 3.06327637 13.2306543 3.08178711 12.27490234 C3.15628092 9.96690413 3.15628092 9.96690413 2 8 C1.01 7.67 0.02 7.34 -1 7 C-1 6.01 -1 5.02 -1 4 C-1.66 4 -2.32 4 -3 4 C-3 3.34 -3 2.68 -3 2 C-5.64 2.33 -8.28 2.66 -11 3 C-11 2.34 -11 1.68 -11 1 C-7.25322601 -0.24892466 -3.92099667 -0.4705196 0 0 Z " fill="#88DC39" transform="translate(127,8)"/>
<path d="M0 0 C0.95777344 0.37125 1.91554687 0.7425 2.90234375 1.125 C3.97162109 1.558125 3.97162109 1.558125 5.0625 2 C5.0625 2.33 5.0625 2.66 5.0625 3 C3.0825 3 1.1025 3 -0.9375 3 C-0.9375 3.66 -0.9375 4.32 -0.9375 5 C-4.2375 5.33 -7.5375 5.66 -10.9375 6 C-10.9375 10.29 -10.9375 14.58 -10.9375 19 C-8.6275 19.33 -6.3175 19.66 -3.9375 20 C-3.88851562 20.84304687 -3.83953125 21.68609375 -3.7890625 22.5546875 C-3.71429688 23.65039062 -3.63953125 24.74609375 -3.5625 25.875 C-3.49289063 26.96554688 -3.42328125 28.05609375 -3.3515625 29.1796875 C-3.20496509 32.13046474 -3.20496509 32.13046474 -0.9375 34 C-1.5975 34.99 -2.2575 35.98 -2.9375 37 C-5.5775 37.33 -8.2175 37.66 -10.9375 38 C-10.9375 43.94 -10.9375 49.88 -10.9375 56 C-11.5975 56 -12.2575 56 -12.9375 56 C-12.9375 58.64 -12.9375 61.28 -12.9375 64 C-13.2675 64 -13.5975 64 -13.9375 64 C-13.96686502 60.18751655 -13.98442035 56.37506274 -14 52.5625 C-14.00837891 51.49322266 -14.01675781 50.42394531 -14.02539062 49.32226562 C-14.04434631 43.12375772 -13.75813259 37.1450519 -12.9375 31 C-14.9175 31 -16.8975 31 -18.9375 31 C-18.9375 34.96 -18.9375 38.92 -18.9375 43 C-19.2675 43 -19.5975 43 -19.9375 43 C-19.96435938 40.85423363 -19.98383088 38.70837355 -20 36.5625 C-20.01160156 35.36753906 -20.02320312 34.17257813 -20.03515625 32.94140625 C-19.9375 30 -19.9375 30 -18.9375 29 C-16.60452567 28.95907063 -14.27044775 28.95758277 -11.9375 29 C-11.9375 28.34 -11.9375 27.68 -11.9375 27 C-13.5875 27 -15.2375 27 -16.9375 27 C-16.9375 26.34 -16.9375 25.68 -16.9375 25 C-17.5975 25 -18.2575 25 -18.9375 25 C-21.9375 19.375 -21.9375 19.375 -21.9375 16 C-22.9275 16 -23.9175 16 -24.9375 16 C-25.02837891 14.93458984 -25.02837891 14.93458984 -25.12109375 13.84765625 C-25.20488281 12.92855469 -25.28867188 12.00945312 -25.375 11.0625 C-25.45621094 10.14597656 -25.53742188 9.22945312 -25.62109375 8.28515625 C-25.69794976 6.03840268 -25.69794976 6.03840268 -26.9375 5 C-26.97813832 3.33382885 -26.980221 1.66611905 -26.9375 0 C-24.75097261 -0.33965474 -22.56321975 -0.67142477 -20.375 -1 C-19.15683594 -1.185625 -17.93867187 -1.37125 -16.68359375 -1.5625 C-10.5345464 -2.28063692 -5.79494302 -2.28936021 0 0 Z " fill="#609F24" transform="translate(132.9375,63)"/>
<path d="M0 0 C2.31 0.33 4.62 0.66 7 1 C7.12375 1.928125 7.12375 1.928125 7.25 2.875 C7.81258459 5.18437567 7.81258459 5.18437567 10.0625 6.25 C10.701875 6.4975 11.34125 6.745 12 7 C12 7.99 12 8.98 12 10 C12.66 10.33 13.32 10.66 14 11 C12.68 11 11.36 11 10 11 C10 9.68 10 8.36 10 7 C9.01 7 8.02 7 7 7 C7 5.68 7 4.36 7 3 C5.35 3.33 3.7 3.66 2 4 C1.34 11.26 0.68 18.52 0 26 C2.64 26 5.28 26 8 26 C8 27.65 8 29.3 8 31 C9.32 31 10.64 31 12 31 C12.33 32.32 12.66 33.64 13 35 C14.98 35.33 16.96 35.66 19 36 C19 37.98 19 39.96 19 42 C15.04 42 11.08 42 7 42 C7.33 43.65 7.66 45.3 8 47 C7.67 47.66 7.34 48.32 7 49 C6.01 49 5.02 49 4 49 C3.67 51.64 3.34 54.28 3 57 C2.67 57 2.34 57 2 57 C2 52.05 2 47.1 2 42 C0.55611429 43.21428988 0.55611429 43.21428988 0.90234375 46.81640625 C0.90901911 48.39846682 0.92098125 49.98051159 0.9375 51.5625 C0.94201172 52.36880859 0.94652344 53.17511719 0.95117188 54.00585938 C0.96299482 56.00393756 0.98093086 58.00197783 1 60 C1.66 60 2.32 60 3 60 C3 61.65 3 63.3 3 65 C2.896875 64.360625 2.79375 63.72125 2.6875 63.0625 C2.3471875 62.0415625 2.3471875 62.0415625 2 61 C1.01 60.67 0.02 60.34 -1 60 C-2.50156874 56.99686252 -2.09281204 54.20932478 -2.0625 50.875 C-2.05347656 49.59367187 -2.04445312 48.31234375 -2.03515625 46.9921875 C-2.02355469 46.00476563 -2.01195312 45.01734375 -2 44 C-2.66 44 -3.32 44 -4 44 C-5.16673629 40.41088647 -4.96589508 37.28861536 -4.6953125 33.546875 C-4.60636719 32.28746094 -4.51742187 31.02804688 -4.42578125 29.73046875 C-4.32652344 28.41691406 -4.22726563 27.10335937 -4.125 25.75 C-4.03347656 24.45191406 -3.94195312 23.15382813 -3.84765625 21.81640625 C-2.54498106 3.81747159 -2.54498106 3.81747159 0 0 Z " fill="#73BD2D" transform="translate(37,59)"/>
<path d="M0 0 C1.2065625 0.0309375 1.2065625 0.0309375 2.4375 0.0625 C2.4375 1.3825 2.4375 2.7025 2.4375 4.0625 C3.4275 4.0625 4.4175 4.0625 5.4375 4.0625 C5.4375 5.3825 5.4375 6.7025 5.4375 8.0625 C7.0875 8.0625 8.7375 8.0625 10.4375 8.0625 C10.540625 8.701875 10.64375 9.34125 10.75 10 C10.976875 10.680625 11.20375 11.36125 11.4375 12.0625 C12.4275 12.3925 13.4175 12.7225 14.4375 13.0625 C16.95753857 16.51097383 16.59651 19.92823995 16.4375 24.0625 C17.0975 24.0625 17.7575 24.0625 18.4375 24.0625 C18.4375 24.7225 18.4375 25.3825 18.4375 26.0625 C17.1175 26.0625 15.7975 26.0625 14.4375 26.0625 C14.4375 28.3725 14.4375 30.6825 14.4375 33.0625 C12.4575 33.0625 10.4775 33.0625 8.4375 33.0625 C8.1075 31.4125 7.7775 29.7625 7.4375 28.0625 C6.1175 28.0625 4.7975 28.0625 3.4375 28.0625 C3.4375 26.4125 3.4375 24.7625 3.4375 23.0625 C0.7975 23.0625 -1.8425 23.0625 -4.5625 23.0625 C-4.75516055 7.82090979 -4.75516055 7.82090979 -3.5625 1.0625 C-2.5625 0.0625 -2.5625 0.0625 0 0 Z " fill="#407918" transform="translate(41.5625,61.9375)"/>
<path d="M0 0 C0.66 0 1.32 0 2 0 C2.02721831 3.0000624 2.04694378 5.99987256 2.0625 9 C2.07087891 9.83917969 2.07925781 10.67835938 2.08789062 11.54296875 C2.1082136 16.78629632 1.93379204 21.83184277 1 27 C0.01 27.495 0.01 27.495 -1 28 C-1.66 28.99 -2.32 29.98 -3 31 C-3 28.03 -3 25.06 -3 22 C-3.98226562 22.01740234 -3.98226562 22.01740234 -4.984375 22.03515625 C-12.0436634 22.10495147 -18.97575988 21.68648769 -26 21 C-26 20.01 -26 19.02 -26 18 C-27.89685547 18.03480469 -27.89685547 18.03480469 -29.83203125 18.0703125 C-31.4921816 18.08907126 -33.15233833 18.10727135 -34.8125 18.125 C-35.64587891 18.14175781 -36.47925781 18.15851563 -37.33789062 18.17578125 C-38.14033203 18.18222656 -38.94277344 18.18867188 -39.76953125 18.1953125 C-40.87711792 18.21102295 -40.87711792 18.21102295 -42.00708008 18.22705078 C-44 18 -44 18 -47 16 C-47 15.01 -47 14.02 -47 13 C-37.92551747 12.88842849 -29.03721311 13.05757182 -20 14 C-20.66 12.02 -21.32 10.04 -22 8 C-20.68 8 -19.36 8 -18 8 C-18 9.98 -18 11.96 -18 14 C-12.06 13.505 -12.06 13.505 -6 13 C-6 11.02 -6 9.04 -6 7 C-4.02 6.34 -2.04 5.68 0 5 C0 3.35 0 1.7 0 0 Z " fill="#4C7E1E" transform="translate(116,127)"/>
<path d="M0 0 C0.99 0.33 1.98 0.66 3 1 C3.02476851 5.19921466 3.04289246 9.39839029 3.05493164 13.59765625 C3.05995206 15.02539816 3.06676972 16.45313496 3.07543945 17.88085938 C3.08760553 19.93621079 3.09325128 21.99149407 3.09765625 24.046875 C3.10551147 25.90070801 3.10551147 25.90070801 3.11352539 27.79199219 C3.02071737 30.4145671 2.78356673 32.51644594 2 35 C2.804375 35.226875 3.60875 35.45375 4.4375 35.6875 C5.283125 36.120625 6.12875 36.55375 7 37 C7.8125 39.625 7.8125 39.625 8 42 C7.34 42 6.68 42 6 42 C6 42.99 6 43.98 6 45 C1.428721 44.45144652 -2.67435795 43.58255197 -7 42 C-7.83288874 35.74692761 -8.03863773 30.23182639 -7 24 C-8.299375 24.185625 -9.59875 24.37125 -10.9375 24.5625 C-13.15234375 24.87890625 -13.15234375 24.87890625 -15 25 C-15.33 24.67 -15.66 24.34 -16 24 C-18.28684338 23.7180604 -20.57363273 23.55222995 -22.87109375 23.37890625 C-25 23 -25 23 -27 21 C-19.59760355 20.87113817 -12.36040917 21.20274098 -5 22 C-4.67 23.98 -4.34 25.96 -4 28 C-3.01 27.67 -2.02 27.34 -1 27 C-0.67 18.09 -0.34 9.18 0 0 Z " fill="#7EC33B" transform="translate(118,127)"/>
<path d="M0 0 C1.49609375 1.16796875 1.49609375 1.16796875 2.49609375 4.16796875 C-3.91435732 6.55061428 -9.43061996 7.40248997 -16.25390625 7.20703125 C-22.02234959 7.137699 -27.75877955 7.69204109 -33.50390625 8.16796875 C-33.50390625 5.85796875 -33.50390625 3.54796875 -33.50390625 1.16796875 C-9.6028923 -5.04296759 -9.6028923 -5.04296759 0 0 Z " fill="#54901E" transform="translate(139.50390625,47.83203125)"/>
<path d="M0 0 C0.95777344 0.37125 1.91554687 0.7425 2.90234375 1.125 C3.97162109 1.558125 3.97162109 1.558125 5.0625 2 C5.0625 2.33 5.0625 2.66 5.0625 3 C3.0825 3 1.1025 3 -0.9375 3 C-0.9375 3.66 -0.9375 4.32 -0.9375 5 C-4.2375 5.33 -7.5375 5.66 -10.9375 6 C-10.9375 7.32 -10.9375 8.64 -10.9375 10 C-14.23799405 11.21597149 -16.31120355 11.26095686 -19.5625 9.90625 C-24.78793161 6.99663467 -24.78793161 6.99663467 -26.9375 5 C-27.2265625 2.2890625 -27.2265625 2.2890625 -26.9375 0 C-24.75097261 -0.33965474 -22.56321975 -0.67142477 -20.375 -1 C-19.15683594 -1.185625 -17.93867187 -1.37125 -16.68359375 -1.5625 C-10.5345464 -2.28063692 -5.79494302 -2.28936021 0 0 Z " fill="#497C19" transform="translate(132.9375,63)"/>
<path d="M0 0 C-2.61941217 1.74627478 -4.03824877 2.38722388 -7 3 C-7 5.64 -7 8.28 -7 11 C-3.535 12.485 -3.535 12.485 0 14 C0.33 17.3 0.66 20.6 1 24 C3.64 24.33 6.28 24.66 9 25 C9 25.66 9 26.32 9 27 C10.32 27 11.64 27 13 27 C13 30.3 13 33.6 13 37 C10.03 37.495 10.03 37.495 7 38 C7 36.02 7 34.04 7 32 C4.03 32 1.06 32 -2 32 C-2 30.68 -2 29.36 -2 28 C-2.33 27.67 -2.66 27.34 -3 27 C-3.07244053 24.98035801 -3.08377188 22.95832876 -3.0625 20.9375 C-3.05347656 19.83277344 -3.04445312 18.72804688 -3.03515625 17.58984375 C-3.02355469 16.73519531 -3.01195312 15.88054687 -3 15 C-5.31 14.67 -7.62 14.34 -10 14 C-10 9.71 -10 5.42 -10 1 C-6.78548731 -0.60725635 -3.56387464 -0.05748185 0 0 Z " fill="#7CBD3D" transform="translate(132,68)"/>
<path d="M0 0 C0.66 0 1.32 0 2 0 C2.02721831 3.0000624 2.04694378 5.99987256 2.0625 9 C2.07087891 9.83917969 2.07925781 10.67835938 2.08789062 11.54296875 C2.1082136 16.78629632 1.93379204 21.83184277 1 27 C0.34 27.33 -0.32 27.66 -1 28 C-1.66 28.99 -2.32 29.98 -3 31 C-3 28.03 -3 25.06 -3 22 C-6.63 22 -10.26 22 -14 22 C-14.33 21.34 -14.66 20.68 -15 20 C-14.236875 19.54625 -13.47375 19.0925 -12.6875 18.625 C-8.66817673 16.61130889 -8.66817673 16.61130889 -6.48828125 13.0546875 C-6.43027344 12.33539063 -6.37226562 11.61609375 -6.3125 10.875 C-6.209375 9.59625 -6.10625 8.3175 -6 7 C-4.02 6.34 -2.04 5.68 0 5 C0 3.35 0 1.7 0 0 Z " fill="#4D841B" transform="translate(116,127)"/>
<path d="M0 0 C7.59 0 15.18 0 23 0 C23 2.64 23 5.28 23 8 C26.69541586 8.95024979 29.30458414 8.95024979 33 8 C32.01 8.33 31.02 8.66 30 9 C30 13.62 30 18.24 30 23 C27.03 23 24.06 23 21 23 C21.495 24.381875 21.99 25.76375 22.5 27.1875 C23.64060429 30.58253811 24.35011048 33.38219169 24 37 C22.06061181 34.09091772 21.03225043 31.59137621 19.875 28.3125 C19.34519531 26.82169922 19.34519531 26.82169922 18.8046875 25.30078125 C18.53914063 24.54152344 18.27359375 23.78226563 18 23 C18.969375 22.7525 19.93875 22.505 20.9375 22.25 C24.07693052 21.3610629 24.07693052 21.3610629 24.9375 19.125 C25.00351505 16.88048821 24.55800741 15.16227872 24 13 C24.33 12.01 24.66 11.02 25 10 C24.01 9.67 23.02 9.34 22 9 C21.67 6.36 21.34 3.72 21 1 C20.01 1 19.02 1 18 1 C18 1.66 18 2.32 18 3 C14.91190305 4.76462683 13.76687864 5 10 5 C10 4.34 10 3.68 10 3 C7.03 2.505 7.03 2.505 4 2 C3.67 2.99 3.34 3.98 3 5 C2.67 4.01 2.34 3.02 2 2 C1.34 2 0.68 2 0 2 C0 1.34 0 0.68 0 0 Z " fill="#6BAF29" transform="translate(80,98)"/>
<path d="M0 0 C1.65 0 3.3 0 5 0 C5 1.98 5 3.96 5 6 C6.65 6 8.3 6 10 6 C10 7.65 10 9.3 10 11 C9.01 11.33 8.02 11.66 7 12 C6.67 13.98 6.34 15.96 6 18 C2.0186217 19.3271261 -1.85045227 19.06915913 -6 19 C-6 17.02 -6 15.04 -6 13 C-4.02 13 -2.04 13 0 13 C0 8.71 0 4.42 0 0 Z " fill="#366611" transform="translate(104,122)"/>
<path d="M0 0 C11.40552995 2.38248848 11.40552995 2.38248848 15 4 C16.17431389 6.34862778 16.06547962 7.61803557 15.625 10.1875 C15 12 15 12 14 13 C12.48071962 13.07179964 10.95832518 13.08392007 9.4375 13.0625 C8.61121094 13.05347656 7.78492188 13.04445313 6.93359375 13.03515625 C6.29550781 13.02355469 5.65742188 13.01195313 5 13 C5 12.34 5 11.68 5 11 C5.99 10.67 6.98 10.34 8 10 C1.47059106 7.04328652 -3.87399867 6.64631979 -11 7 C-8.09907498 5.06604999 -7.10325263 4.69868059 -3.8125 4.375 C-2.554375 4.25125 -1.29625 4.1275 0 4 C0 2.68 0 1.36 0 0 Z " fill="#78C32F" transform="translate(127,55)"/>
<path d="M0 0 C0.33 0.66 0.66 1.32 1 2 C-0.78857422 2.09087891 -0.78857422 2.09087891 -2.61328125 2.18359375 C-4.17969925 2.26801149 -5.74610488 2.35265887 -7.3125 2.4375 C-8.09818359 2.47681641 -8.88386719 2.51613281 -9.69335938 2.55664062 C-10.8293457 2.61948242 -10.8293457 2.61948242 -11.98828125 2.68359375 C-12.68477783 2.72025146 -13.38127441 2.75690918 -14.09887695 2.79467773 C-16.2216572 2.95581153 -16.2216572 2.95581153 -19 4 C-20.39439664 4.06665376 -21.79169875 4.08538199 -23.1875 4.0625 C-25.0746875 4.0315625 -25.0746875 4.0315625 -27 4 C-27 2.35 -27 0.7 -27 -1 C-18.35575111 -4.2164647 -8.10312258 -4.7882088 0 0 Z " fill="#214509" transform="translate(135,51)"/>
<path d="M0 0 C-0.375 1.9375 -0.375 1.9375 -1 4 C-1.99 4.495 -1.99 4.495 -3 5 C-3.72693904 6.97888961 -4.39816251 8.97954558 -5 11 C-5.99 11 -6.98 11 -8 11 C-8 12.32 -8 13.64 -8 15 C-10.78754885 16.8583659 -12.81040793 17.07524976 -16.0625 16.9375 C-19.88570328 16.56992857 -19.88570328 16.56992857 -21.6875 18.5 C-22.120625 18.995 -22.55375 19.49 -23 20 C-25.6875 20.1875 -25.6875 20.1875 -28 20 C-26.68 19.67 -25.36 19.34 -24 19 C-24 16.69 -24 14.38 -24 12 C-20.53058454 12.45822468 -17.32604951 12.89131683 -14 14 C-12.68 14 -11.36 14 -10 14 C-10.33 11.69 -10.66 9.38 -11 7 C-9.68 6.67 -8.36 6.34 -7 6 C-7 4.35 -7 2.7 -7 1 C-2.25 0 -2.25 0 0 0 Z " fill="#ACDF7A" transform="translate(74,152)"/>
<path d="M0 0 C0.33 0 0.66 0 1 0 C1 13.53 1 27.06 1 41 C-0.32 41 -1.64 41 -3 41 C-3 42.98 -3 44.96 -3 47 C-3.61875 47.20625 -4.2375 47.4125 -4.875 47.625 C-7.84653645 49.54775888 -8.13024659 51.66594527 -9 55 C-9.66 55 -10.32 55 -11 55 C-11.33 53.68 -11.66 52.36 -12 51 C-11.34 51 -10.68 51 -10 51 C-9.67 49.35 -9.34 47.7 -9 46 C-7.515 45.505 -7.515 45.505 -6 45 C-5.67 43.35 -5.34 41.7 -5 40 C-3.68 40 -2.36 40 -1 40 C-1.00523682 38.85934082 -1.01047363 37.71868164 -1.01586914 36.54345703 C-1.03393869 32.32048321 -1.04543919 28.09751282 -1.05493164 23.87451172 C-1.05996737 22.04507879 -1.06679627 20.21564991 -1.07543945 18.38623047 C-1.08753824 15.76008102 -1.09323583 13.13398468 -1.09765625 10.5078125 C-1.10281754 9.68693146 -1.10797882 8.86605042 -1.11329651 8.02029419 C-1.11387171 2.22774341 -1.11387171 2.22774341 0 0 Z " fill="#D5ECC3" transform="translate(73,34)"/>
<path d="M0 0 C0.99 0 1.98 0 3 0 C3 0.66 3 1.32 3 2 C3.598125 2.103125 4.19625 2.20625 4.8125 2.3125 C7.30869017 3.09701691 8.25731865 4.09889308 10 6 C10.66 6.33 11.32 6.66 12 7 C12 17.23 12 27.46 12 38 C9.69 38.66 7.38 39.32 5 40 C4.67 40.66 4.34 41.32 4 42 C1.03 41.34 -1.94 40.68 -5 40 C-2.32449708 37.32449708 -0.05120106 37.16790611 3.625 36.375 C4.81351563 36.11460938 6.00203125 35.85421875 7.2265625 35.5859375 C8.14179688 35.39257812 9.05703125 35.19921875 10 35 C10.14522934 31.08372337 10.23404757 27.16813847 10.3125 23.25 C10.35439453 22.13882813 10.39628906 21.02765625 10.43945312 19.8828125 C10.74431642 13.52771181 10.74431642 13.52771181 7.59375 8.3359375 C6.7378125 7.89507813 5.881875 7.45421875 5 7 C3.1875 5.375 3.1875 5.375 2 4 C2 3.34 2 2.68 2 2 C1.34 2 0.68 2 0 2 C0 1.34 0 0.68 0 0 Z " fill="#93CE5A" transform="translate(135,16)"/>
<path d="M0 0 C18.22916667 -0.4375 18.22916667 -0.4375 25 2 C25.33 2.66 25.66 3.32 26 4 C22.24401541 5.8779923 17.69526018 5.18475762 13.5625 5.1875 C12.59505859 5.19974609 11.62761719 5.21199219 10.63085938 5.22460938 C9.23770508 5.22750977 9.23770508 5.22750977 7.81640625 5.23046875 C6.96506104 5.23457764 6.11371582 5.23868652 5.23657227 5.24291992 C3 5 3 5 0 3 C0 2.01 0 1.02 0 0 Z " fill="#24480B" transform="translate(69,140)"/>
<path d="M0 0 C0.66 0 1.32 0 2 0 C2.02721831 3.0000624 2.04694378 5.99987256 2.0625 9 C2.07087891 9.83917969 2.07925781 10.67835938 2.08789062 11.54296875 C2.1082136 16.78629632 1.93379204 21.83184277 1 27 C0.34 27.33 -0.32 27.66 -1 28 C-1.66 28.99 -2.32 29.98 -3 31 C-3.05447047 29.58376784 -3.09300508 28.16691809 -3.125 26.75 C-3.14820312 25.96109375 -3.17140625 25.1721875 -3.1953125 24.359375 C-2.9828378 21.79268059 -2.28654105 20.2083933 -1 18 C-1.66 17.34 -2.32 16.68 -3 16 C-3.13367039 10.53065338 -1.64915223 5.16734366 0 0 Z " fill="#77C12F" transform="translate(116,127)"/>
<path d="M0 0 C0.95777344 0.37125 1.91554687 0.7425 2.90234375 1.125 C3.97162109 1.558125 3.97162109 1.558125 5.0625 2 C5.0625 2.33 5.0625 2.66 5.0625 3 C3.0825 3 1.1025 3 -0.9375 3 C-0.9375 3.66 -0.9375 4.32 -0.9375 5 C-4.2375 5.33 -7.5375 5.66 -10.9375 6 C-10.2775 4.35 -9.6175 2.7 -8.9375 1 C-14.5475 1 -20.1575 1 -25.9375 1 C-25.6075 2.65 -25.2775 4.3 -24.9375 6 C-25.5975 5.67 -26.2575 5.34 -26.9375 5 C-26.9375 3.35 -26.9375 1.7 -26.9375 0 C-24.75097261 -0.33965474 -22.56321975 -0.67142477 -20.375 -1 C-19.15683594 -1.185625 -17.93867187 -1.37125 -16.68359375 -1.5625 C-10.5345464 -2.28063692 -5.79494302 -2.28936021 0 0 Z " fill="#5A9324" transform="translate(132.9375,63)"/>
<path d="M0 0 C0.66 0.33 1.32 0.66 2 1 C2.33 6.61 2.66 12.22 3 18 C3.66 18.33 4.32 18.66 5 19 C5 24.61 5 30.22 5 36 C5.66 36 6.32 36 7 36 C7 37.65 7 39.3 7 41 C6.896875 40.360625 6.79375 39.72125 6.6875 39.0625 C6.3471875 38.0415625 6.3471875 38.0415625 6 37 C5.01 36.67 4.02 36.34 3 36 C1.49843126 32.99686252 1.90718796 30.20932478 1.9375 26.875 C1.94652344 25.59367187 1.95554688 24.31234375 1.96484375 22.9921875 C1.97644531 22.00476563 1.98804688 21.01734375 2 20 C1.34 20 0.68 20 0 20 C-1.19799449 15.85340627 -0.8896192 12.00630953 -0.5625 7.75 C-0.51029297 7.00492187 -0.45808594 6.25984375 -0.40429688 5.4921875 C-0.2751783 3.66105139 -0.13834886 1.83046187 0 0 Z " fill="#C3E5A3" transform="translate(33,83)"/>
<path d="M0 0 C2.31 0.33 4.62 0.66 7 1 C7.12375 1.928125 7.12375 1.928125 7.25 2.875 C7.81258459 5.18437567 7.81258459 5.18437567 10.0625 6.25 C10.701875 6.4975 11.34125 6.745 12 7 C12 7.99 12 8.98 12 10 C12.66 10.33 13.32 10.66 14 11 C12.68 11 11.36 11 10 11 C10 9.68 10 8.36 10 7 C9.01 7 8.02 7 7 7 C7 5.68 7 4.36 7 3 C5.35 3.33 3.7 3.66 2 4 C1.67 6.31 1.34 8.62 1 11 C0.34 11 -0.32 11 -1 11 C-1.33 15.29 -1.66 19.58 -2 24 C-2.33 24 -2.66 24 -3 24 C-3.26213592 4.89320388 -3.26213592 4.89320388 0 0 Z " fill="#B8D59E" transform="translate(37,59)"/>
<path d="M0 0 C0.99 0.33 1.98 0.66 3 1 C3.38178283 12.43227487 2.21086752 23.64650681 1 35 C-1 33 -1 33 -1.23046875 30.41015625 C-1.10012308 20.25504373 -0.60519632 10.13703828 0 0 Z " fill="#88CD45" transform="translate(118,127)"/>
<path d="M0 0 C-2.61941217 1.74627478 -4.03824877 2.38722388 -7 3 C-7 5.64 -7 8.28 -7 11 C-3.535 12.485 -3.535 12.485 0 14 C0.33 17.63 0.66 21.26 1 25 C0.01 25.33 -0.98 25.66 -2 26 C-2 22.04 -2 18.08 -2 14 C-4.64 14 -7.28 14 -10 14 C-10 9.71 -10 5.42 -10 1 C-6.78548731 -0.60725635 -3.56387464 -0.05748185 0 0 Z " fill="#B8D69D" transform="translate(132,68)"/>
<path d="M0 0 C0 0.66 0 1.32 0 2 C-2.91765 3.9451 -4.62537285 4.45276317 -8 5 C-8.66 7.31 -9.32 9.62 -10 12 C-12.64 12.66 -15.28 13.32 -18 14 C-18 13.01 -18 12.02 -18 11 C-17.195625 10.79375 -16.39125 10.5875 -15.5625 10.375 C-14.716875 9.92125 -13.87125 9.4675 -13 9 C-12.855625 8.030625 -12.71125 7.06125 -12.5625 6.0625 C-12 3 -12 3 -9.3125 1.125 C-5.96289494 -0.01260172 -3.50663393 -0.25047385 0 0 Z " fill="#B1E082" transform="translate(90,19)"/>
<path d="M0 0 C0.33 0 0.66 0 1 0 C1.33 11.22 1.66 22.44 2 34 C3.32 34.66 4.64 35.32 6 36 C6 37.98 6 39.96 6 42 C5.21625 41.195625 4.4325 40.39125 3.625 39.5625 C1.28017144 37.01309583 1.28017144 37.01309583 -1 36 C-1.02465098 31.03377651 -1.04283649 26.06758834 -1.05493164 21.10131836 C-1.0599719 19.41055684 -1.06680405 17.71979971 -1.07543945 16.02905273 C-1.08751857 13.60399293 -1.09323123 11.17899056 -1.09765625 8.75390625 C-1.10281754 7.99348526 -1.10797882 7.23306427 -1.11329651 6.44960022 C-1.11349238 4.6326743 -1.06197277 2.81586873 -1 1 C-0.67 0.67 -0.34 0.34 0 0 Z " fill="#D7EBC6" transform="translate(121,126)"/>
<path d="M0 0 C0.33 0 0.66 0 1 0 C1.02715383 1.74991334 1.04646551 3.49994945 1.0625 5.25 C1.07410156 6.22453125 1.08570312 7.1990625 1.09765625 8.203125 C1.01195577 10.65758678 0.70706066 12.66168914 0 15 C0.804375 15.226875 1.60875 15.45375 2.4375 15.6875 C3.7059375 16.3371875 3.7059375 16.3371875 5 17 C5.8125 19.625 5.8125 19.625 6 22 C5.34 22 4.68 22 4 22 C4 22.99 4 23.98 4 25 C-2.75 24.25 -2.75 24.25 -5 22 C-3.02 21.67 -1.04 21.34 1 21 C1 19.68 1 18.36 1 17 C0.34 17 -0.32 17 -1 17 C-1.02721176 15.10424749 -1.04649136 13.20838021 -1.0625 11.3125 C-1.07410156 10.25675781 -1.08570312 9.20101562 -1.09765625 8.11328125 C-1.00865425 5.27589738 -0.64939838 2.7561081 0 0 Z " fill="#92D352" transform="translate(120,147)"/>
<path d="M0 0 C8.00996896 -0.37743309 15.48473039 -0.07378757 23 3 C23.33 3.66 23.66 4.32 24 5 C15.34796755 8.49409003 7.15244471 8.30659554 -2 8 C1.72066472 5.51955685 4.86540474 5.55618827 9.1875 5.375 C9.93708984 5.33632813 10.68667969 5.29765625 11.45898438 5.2578125 C13.30559199 5.16371784 15.1527619 5.08077681 17 5 C12.74858738 3.03983077 9.28090823 1.63567865 4.5625 1.3125 C3.69753906 1.24675781 2.83257812 1.18101563 1.94140625 1.11328125 C0.98041016 1.05720703 0.98041016 1.05720703 0 1 C0 0.67 0 0.34 0 0 Z " fill="#4D8020" transform="translate(118,47)"/>
<path d="M0 0 C1.65 0 3.3 0 5 0 C5 1.98 5 3.96 5 6 C6.65 6 8.3 6 10 6 C10 7.32 10 8.64 10 10 C8.52093108 10.02689216 7.04172517 10.04634621 5.5625 10.0625 C4.32693359 10.07990234 4.32693359 10.07990234 3.06640625 10.09765625 C1 10 1 10 0 9 C-0.07179964 7.48071962 -0.08392007 5.95832518 -0.0625 4.4375 C-0.05347656 3.61121094 -0.04445313 2.78492187 -0.03515625 1.93359375 C-0.02355469 1.29550781 -0.01195313 0.65742187 0 0 Z " fill="#2A540B" transform="translate(104,122)"/>
<path d="M0 0 C0.33 0 0.66 0 1 0 C1 4.95 1 9.9 1 15 C1.66 15 2.32 15 3 15 C3 16.32 3 17.64 3 19 C3.99 19.33 4.98 19.66 6 20 C5.67 22.97 5.34 25.94 5 29 C4.34 28.34 3.68 27.68 3 27 C3 25.68 3 24.36 3 23 C1.68 22.34 0.36 21.68 -1 21 C-1.13794954 13.93391809 -0.74805717 7.02639415 0 0 Z " fill="#C2E5A3" transform="translate(41,124)"/>
<path d="M0 0 C7.08967304 -0.12130619 13.95517985 0.18320926 21 1 C21 7.27 21 13.54 21 20 C21.66 20.33 22.32 20.66 23 21 C22.01 21 21.02 21 20 21 C19.16711126 14.74692761 18.96136227 9.23182639 20 3 C18.0509375 3.2784375 18.0509375 3.2784375 16.0625 3.5625 C13.84765625 3.87890625 13.84765625 3.87890625 12 4 C11.67 3.67 11.34 3.34 11 3 C8.71315662 2.7180604 6.42636727 2.55222995 4.12890625 2.37890625 C2 2 2 2 0 0 Z " fill="#C1DDAA" transform="translate(91,148)"/>
<path d="M0 0 C1.98 0 3.96 0 6 0 C6 1.32 6 2.64 6 4 C2.04 4 -1.92 4 -6 4 C-6 8.62 -6 13.24 -6 18 C-5.01 18.33 -4.02 18.66 -3 19 C-4.65 18.67 -6.3 18.34 -8 18 C-9.13129791 12.97200929 -8.85122426 9.02222315 -8 4 C-6.03177114 2.03177114 -2.65191291 2.33751619 0 2 C0 1.34 0 0.68 0 0 Z " fill="#D1EABB" transform="translate(48,153)"/>
<path d="M0 0 C0 0.66 0 1.32 0 2 C-0.67160156 2.11214844 -1.34320313 2.22429688 -2.03515625 2.33984375 C-6.27441876 3.28376386 -10.30993565 4.78787025 -14.38476562 6.27148438 C-18.39860609 7.66919735 -21.75623198 8.25580673 -26 8 C-26 7.34 -26 6.68 -26 6 C-22.78021152 5.00259184 -19.55927812 4.00931825 -16.3359375 3.0234375 C-14.48390167 2.45524852 -12.63329675 1.88208482 -10.7890625 1.2890625 C-7.0997329 0.13719036 -3.85844688 -0.18821692 0 0 Z " fill="#C4E5A5" transform="translate(116,11)"/>
<path d="M0 0 C0.66 0 1.32 0 2 0 C2 6.93 2 13.86 2 21 C1.34 21 0.68 21 0 21 C-0.33 22.65 -0.66 24.3 -1 26 C-1.33 26 -1.66 26 -2 26 C-2 23.36 -2 20.72 -2 18 C-1.34 18 -0.68 18 0 18 C0 12.06 0 6.12 0 0 Z " fill="#91D74B" transform="translate(122,101)"/>
<path d="M0 0 C3.46941546 0.45822468 6.67395049 0.89131683 10 2 C11.32 2 12.64 2 14 2 C14 2.66 14 3.32 14 4 C12 5 12 5 8.0625 4.875 C4.85924121 4.72085435 4.85924121 4.72085435 2.3125 6.5 C1.879375 6.995 1.44625 7.49 1 8 C-1.6875 8.1875 -1.6875 8.1875 -4 8 C-2.68 7.67 -1.36 7.34 0 7 C0 4.69 0 2.38 0 0 Z " fill="#A5D872" transform="translate(50,164)"/>
<path d="M0 0 C1.32 0.33 2.64 0.66 4 1 C4 2.65 4 4.3 4 6 C4.66 6 5.32 6 6 6 C6.33 11.94 6.66 17.88 7 24 C6.67 23.34 6.34 22.68 6 22 C5.34 22 4.68 22 4 22 C4 17.05 4 12.1 4 7 C3.34 7 2.68 7 2 7 C2 5.35 2 3.7 2 2 C1.34 2 0.68 2 0 2 C0 1.34 0 0.68 0 0 Z " fill="#97D853" transform="translate(38,117)"/>
<path d="M0 0 C1.32 0.33 2.64 0.66 4 1 C2.375 6.75 2.375 6.75 -1 9 C-1.99 8.67 -2.98 8.34 -4 8 C-3.01 7.67 -2.02 7.34 -1 7 C-0.26676204 4.98491642 -0.26676204 4.98491642 0 3 C-1.43903046 3.62146808 -2.87616793 4.24732059 -4.3125 4.875 C-5.51326172 5.39707031 -5.51326172 5.39707031 -6.73828125 5.9296875 C-9.1961834 7.02571894 -9.1961834 7.02571894 -12 9 C-12 8.34 -12 7.68 -12 7 C-12.99 6.67 -13.98 6.34 -15 6 C-13.25307205 5.32532438 -11.50231475 4.66055844 -9.75 4 C-8.77546875 3.62875 -7.8009375 3.2575 -6.796875 2.875 C-4 2 -4 2 0 2 C0 1.34 0 0.68 0 0 Z " fill="#8DD641" transform="translate(111,12)"/>
<path d="M0 0 C3.96 0 7.92 0 12 0 C12 4.62 12 9.24 12 14 C10.02 14 8.04 14 6 14 C7.32 13.67 8.64 13.34 10 13 C10 9.7 10 6.4 10 3 C8.68 3 7.36 3 6 3 C6 2.34 6 1.68 6 1 C4.02 1 2.04 1 0 1 C0 0.67 0 0.34 0 0 Z " fill="#A8DE73" transform="translate(135,92)"/>
<path d="M0 0 C1.32 0.66 2.64 1.32 4 2 C4.125 4.875 4.125 4.875 4 8 C2 10 2 10 -0.1640625 10.1953125 C-1.38222656 10.16050781 -1.38222656 10.16050781 -2.625 10.125 C-3.44226563 10.10695313 -4.25953125 10.08890625 -5.1015625 10.0703125 C-5.72804687 10.04710938 -6.35453125 10.02390625 -7 10 C-7 9.34 -7 8.68 -7 8 C-4.69 8 -2.38 8 0 8 C0 7.34 0 6.68 0 6 C-0.99 5.67 -1.98 5.34 -3 5 C-2.01 5 -1.02 5 0 5 C0 3.35 0 1.7 0 0 Z " fill="#8CC655" transform="translate(139,58)"/>
<path d="M0 0 C2.75899452 0.70336209 4.52020846 1.53466863 7 3 C7.33 3.66 7.66 4.32 8 5 C3.98105641 5.24605777 1.39204382 5.17752928 -2.3125 3.5 C-7.01541745 1.58694883 -10.99566384 1.72813466 -16 2 C-11.12260825 -1.2515945 -5.70692252 -0.45957189 0 0 Z " fill="#305D0E" transform="translate(128,48)"/>
<path d="M0 0 C0.66 0 1.32 0 2 0 C1.96519531 0.92232422 1.96519531 0.92232422 1.9296875 1.86328125 C1.91164063 2.67152344 1.89359375 3.47976562 1.875 4.3125 C1.84019531 5.51326172 1.84019531 5.51326172 1.8046875 6.73828125 C1.84182678 9.28388576 1.84182678 9.28388576 4 12 C3.01 13.485 3.01 13.485 2 15 C-0.8203125 15.29296875 -0.8203125 15.29296875 -4.125 15.1875 C-5.76855469 15.14689453 -5.76855469 15.14689453 -7.4453125 15.10546875 C-8.28835937 15.07066406 -9.13140625 15.03585938 -10 15 C-8.68 14.67 -7.36 14.34 -6 14 C-6 13.34 -6 12.68 -6 12 C-4.68 12 -3.36 12 -2 12 C-2 12.66 -2 13.32 -2 14 C-1.01 13.67 -0.02 13.34 1 13 C1.33 12.34 1.66 11.68 2 11 C1.34 11 0.68 11 0 11 C-1.28571429 3.57142857 -1.28571429 3.57142857 0 0 Z " fill="#5D9825" transform="translate(112,134)"/>
<path d="M0 0 C0.66 0.33 1.32 0.66 2 1 C1.34 11.23 0.68 21.46 0 32 C-0.33 32 -0.66 32 -1 32 C-1.8598024 20.99685311 -2.35969025 10.8623758 0 0 Z " fill="#7DB04E" transform="translate(36,70)"/>
<path d="M0 0 C1.6875 1.3125 1.6875 1.3125 3 3 C4.64605826 4.03357147 6.30963442 5.04060332 8 6 C7.67 6.66 7.34 7.32 7 8 C4.69 7.01 2.38 6.02 0 5 C0 4.34 0 3.68 0 3 C-3.63 3 -7.26 3 -11 3 C-11 2.34 -11 1.68 -11 1 C-7.25322601 -0.24892466 -3.92099667 -0.4705196 0 0 Z " fill="#CAE7AF" transform="translate(127,8)"/>
<path d="M0 0 C1.48831242 0.00667405 2.97660807 0.01863442 4.46484375 0.03515625 C5.22345703 0.03966797 5.98207031 0.04417969 6.76367188 0.04882812 C8.64326246 0.06064945 10.52281274 0.07858547 12.40234375 0.09765625 C12.40234375 1.08765625 12.40234375 2.07765625 12.40234375 3.09765625 C11.41234375 2.76765625 10.42234375 2.43765625 9.40234375 2.09765625 C8.80421875 2.26265625 8.20609375 2.42765625 7.58984375 2.59765625 C4.66973459 3.26510977 2.30804378 2.69200398 -0.59765625 2.09765625 C-1.25765625 3.41765625 -1.91765625 4.73765625 -2.59765625 6.09765625 C-3.25765625 6.09765625 -3.91765625 6.09765625 -4.59765625 6.09765625 C-4.64037725 4.4315372 -4.63829457 2.7638274 -4.59765625 1.09765625 C-3.59765625 0.09765625 -3.59765625 0.09765625 0 0 Z " fill="#B5D499" transform="translate(77.59765625,144.90234375)"/>
<path d="M0 0 C5.28 0 10.56 0 16 0 C16 0.66 16 1.32 16 2 C12.91190305 3.76462683 11.76687864 4 8 4 C8 3.34 8 2.68 8 2 C5.03 1.505 5.03 1.505 2 1 C1.67 1.99 1.34 2.98 1 4 C0.67 2.68 0.34 1.36 0 0 Z " fill="#5B9721" transform="translate(82,99)"/>
<path d="M0 0 C0.99 0 1.98 0 3 0 C3 4.29 3 8.58 3 13 C1.35 13 -0.3 13 -2 13 C-1.34 8.71 -0.68 4.42 0 0 Z " fill="#76C02F" transform="translate(106,107)"/>
<path d="M0 0 C4.55384615 -0.36923077 4.55384615 -0.36923077 6.8125 1.5 C7.204375 1.995 7.59625 2.49 8 3 C7.01 4.485 7.01 4.485 6 6 C2.875 6.1875 2.875 6.1875 0 6 C0 4.02 0 2.04 0 0 Z " fill="#558E21" transform="translate(124,94)"/>
<path d="M0 0 C0 0.99 0 1.98 0 3 C-3.3 3.66 -6.6 4.32 -10 5 C-10 3.68 -10 2.36 -10 1 C-6.78548731 -0.60725635 -3.56387464 -0.05748185 0 0 Z " fill="#29540B" transform="translate(109,135)"/>
<path d="M0 0 C2.0625 0.4375 2.0625 0.4375 4 1 C3.34 1.66 2.68 2.32 2 3 C1.83286431 5.37468476 1.83286431 5.37468476 2 8 C2.125 10.6875 2.125 10.6875 2 13 C1.34 13.66 0.68 14.32 0 15 C-0.91740621 11.87645029 -1.13460306 9.06313562 -1.125 5.8125 C-1.12757812 4.93207031 -1.13015625 4.05164063 -1.1328125 3.14453125 C-1 1 -1 1 0 0 Z " fill="#69AD28" transform="translate(75,105)"/>
<path d="M0 0 C0.268125 0.61875 0.53625 1.2375 0.8125 1.875 C1.95556848 4.2995233 1.95556848 4.2995233 5 6 C3.35 6 1.7 6 0 6 C0 11.94 0 17.88 0 24 C-0.33 24 -0.66 24 -1 24 C-1.02887236 20.18751574 -1.04675492 16.3750593 -1.0625 12.5625 C-1.07087891 11.47388672 -1.07925781 10.38527344 -1.08789062 9.26367188 C-1.09111328 8.22919922 -1.09433594 7.19472656 -1.09765625 6.12890625 C-1.10289307 5.17056885 -1.10812988 4.21223145 -1.11352539 3.22485352 C-1 1 -1 1 0 0 Z " fill="#7CC437" transform="translate(122,95)"/>
<path d="M0 0 C4.29 0 8.58 0 13 0 C10.65454672 2.34545328 9.04014162 2.95508888 5.73828125 3.09765625 C4.93777344 3.08605469 4.13726562 3.07445312 3.3125 3.0625 C2.10013672 3.04896484 2.10013672 3.04896484 0.86328125 3.03515625 C-0.05904297 3.01775391 -0.05904297 3.01775391 -1 3 C-0.67 2.01 -0.34 1.02 0 0 Z " fill="#163206" transform="translate(111,51)"/>
<path d="M0 0 C0.99 0 1.98 0 3 0 C3 0.66 3 1.32 3 2 C3.8971875 2.1546875 3.8971875 2.1546875 4.8125 2.3125 C7.30869017 3.09701691 8.25731865 4.09889308 10 6 C10.66 6.33 11.32 6.66 12 7 C11.67 7.99 11.34 8.98 11 10 C4.21917808 6.83561644 4.21917808 6.83561644 2 4 C2 3.34 2 2.68 2 2 C1.34 2 0.68 2 0 2 C0 1.34 0 0.68 0 0 Z " fill="#C9E7AD" transform="translate(135,16)"/>
<path d="M0 0 C0.66 0 1.32 0 2 0 C2.37196765 7.56334232 2.37196765 7.56334232 0.5625 9.6875 C0.046875 10.120625 -0.46875 10.55375 -1 11 C-1.72197162 13.60611077 -1.72197162 13.60611077 -2 16 C-2.33 16 -2.66 16 -3 16 C-2.52013969 10.43109483 -1.70084819 5.32932432 0 0 Z " fill="#6AAE29" transform="translate(116,127)"/>
<path d="M0 0 C0.33 0 0.66 0 1 0 C1 1.98 1 3.96 1 6 C0.01 6.33 -0.98 6.66 -2 7 C-2.67939174 8.99571323 -3.34561559 10.99594773 -4 13 C-4.99 13.66 -5.98 14.32 -7 15 C-7.72382467 17.05925139 -7.72382467 17.05925139 -8 19 C-8.66 18.67 -9.32 18.34 -10 18 C-9.1875 15.0625 -9.1875 15.0625 -8 12 C-7.01 11.67 -6.02 11.34 -5 11 C-4.67 9.02 -4.34 7.04 -4 5 C-2.68 5 -1.36 5 0 5 C0 3.35 0 1.7 0 0 Z " fill="#97D954" transform="translate(74,70)"/>
<path d="M0 0 C4.95 0 9.9 0 15 0 C15 0.33 15 0.66 15 1 C11.37 1 7.74 1 4 1 C4 1.99 4 2.98 4 4 C5.32 4.33 6.64 4.66 8 5 C4.28400809 5.20086443 3.22791555 5.1519437 0 3 C0 2.01 0 1.02 0 0 Z " fill="#548B22" transform="translate(69,140)"/>
<path d="M0 0 C-2 2 -2 2 -4.5625 2.5 C-5.366875 2.665 -6.17125 2.83 -7 3 C-7.33 3.66 -7.66 4.32 -8 5 C-12.455 4.01 -12.455 4.01 -17 3 C-17 2.67 -17 2.34 -17 2 C-15.10507994 1.66151348 -13.20901534 1.32943089 -11.3125 1 C-9.72888672 0.7215625 -9.72888672 0.7215625 -8.11328125 0.4375 C-5.35095938 0.04931926 -2.78257957 -0.08259976 0 0 Z " fill="#D7EBC7" transform="translate(147,53)"/>
<path d="M0 0 C-2 2 -2 2 -5.6953125 2.1953125 C-7.17200108 2.182009 -8.64862358 2.15814835 -10.125 2.125 C-10.87910156 2.11597656 -11.63320312 2.10695312 -12.41015625 2.09765625 C-14.27357254 2.0740687 -16.13682593 2.03819719 -18 2 C-18 1.67 -18 1.34 -18 1 C-15.93939936 0.63494484 -13.87640368 0.28339285 -11.8125 -0.0625 C-10.66394531 -0.25972656 -9.51539062 -0.45695313 -8.33203125 -0.66015625 C-5.21351634 -0.97822284 -3.00194217 -0.80843264 0 0 Z " fill="#375C1C" transform="translate(95,143)"/>
<path d="M0 0 C5.36964286 0.34642857 5.36964286 0.34642857 8 1 C9.5625 2.875 9.5625 2.875 10 5 C9.67 5.99 9.34 6.98 9 8 C7.68 7.67 6.36 7.34 5 7 C5.99 7 6.98 7 8 7 C8 5.68 8 4.36 8 3 C5.36 3 2.72 3 0 3 C0 2.01 0 1.02 0 0 Z " fill="#9AD460" transform="translate(46,150)"/>
<path d="M0 0 C1.32 0 2.64 0 4 0 C4 2.31 4 4.62 4 7 C0.37 7 -3.26 7 -7 7 C-7 6.67 -7 6.34 -7 6 C-4.03 6 -1.06 6 2 6 C1.34 4.02 0.68 2.04 0 0 Z " fill="#589420" transform="translate(94,135)"/>
<path d="M0 0 C1.65 0 3.3 0 5 0 C5 1.98 5 3.96 5 6 C3.68 6 2.36 6 1 6 C0.67 4.02 0.34 2.04 0 0 Z " fill="#366411" transform="translate(84,34)"/>
<path d="M0 0 C0.99 0 1.98 0 3 0 C3.33 0.66 3.66 1.32 4 2 C6.30965848 3.05352843 8.6429774 4.05719096 11 5 C11 5.66 11 6.32 11 7 C9.68 7.33 8.36 7.66 7 8 C6.34 7.01 5.68 6.02 5 5 C4.01 4.67 3.02 4.34 2 4 C2 3.01 2 2.02 2 1 C1.34 0.67 0.68 0.34 0 0 Z " fill="#93D94D" transform="translate(124,11)"/>
<path d="M0 0 C0 0.99 0 1.98 0 3 C-0.99 3.495 -0.99 3.495 -2 4 C-2.72693904 5.97888961 -3.39816251 7.97954558 -4 10 C-4.99 9.67 -5.98 9.34 -7 9 C-6.60348083 7.68127338 -6.18201309 6.37002899 -5.75 5.0625 C-5.51796875 4.33160156 -5.2859375 3.60070312 -5.046875 2.84765625 C-4 1 -4 1 -1.890625 0.24609375 C-1.26671875 0.16488281 -0.6428125 0.08367187 0 0 Z " fill="#D8ECC8" transform="translate(73,153)"/>
<path d="M0 0 C0.33 0 0.66 0 1 0 C1 2.64 1 5.28 1 8 C0.34 8 -0.32 8 -1 8 C-1.33 9.65 -1.66 11.3 -2 13 C-2.33 13 -2.66 13 -3 13 C-3 10.36 -3 7.72 -3 5 C-2.01 5 -1.02 5 0 5 C0 3.35 0 1.7 0 0 Z " fill="#A3CD7C" transform="translate(123,114)"/>
<path d="M0 0 C3.3 0.99 6.6 1.98 10 3 C10 3.66 10 4.32 10 5 C3.51707705 5.3669579 3.51707705 5.3669579 1.0625 3.625 C0 2 0 2 0 0 Z " fill="#86C14B" transform="translate(129,55)"/>
<path d="M0 0 C1.32 0.66 2.64 1.32 4 2 C4.125 4.875 4.125 4.875 4 8 C2 10 2 10 -1.625 10.125 C-2.73875 10.08375 -3.8525 10.0425 -5 10 C-5 9.67 -5 9.34 -5 9 C-3.02 9 -1.04 9 1 9 C1.26932521 4.34947128 1.26932521 4.34947128 0 0 Z " fill="#C6E2AE" transform="translate(139,58)"/>
<path d="M0 0 C0.99 0.495 0.99 0.495 2 1 C2 1.99 2 2.98 2 4 C2.99 4.33 3.98 4.66 5 5 C6.1875 7.5625 6.1875 7.5625 7 10 C5.68 10 4.36 10 3 10 C3 8.35 3 6.7 3 5 C2.01 5 1.02 5 0 5 C0 3.35 0 1.7 0 0 Z " fill="#BAD6A2" transform="translate(51,70)"/>
<path d="M0 0 C1.32 0 2.64 0 4 0 C2.84807997 3.4557601 2.08865366 4.19828537 -1 6 C-3.75 6.1875 -3.75 6.1875 -6 6 C-5.38125 5.938125 -4.7625 5.87625 -4.125 5.8125 C-1.72238859 5.171081 -1.72238859 5.171081 -0.75 2.4375 C-0.5025 1.633125 -0.255 0.82875 0 0 Z " fill="#CDE8B5" transform="translate(52,166)"/>
<path d="M0 0 C0.33 0.99 0.66 1.98 1 3 C1.804375 2.979375 2.60875 2.95875 3.4375 2.9375 C6 3 6 3 7 4 C7.04080783 5.99958364 7.04254356 8.00045254 7 10 C6.21625 9.195625 5.4325 8.39125 4.625 7.5625 C2.28017144 5.01309583 2.28017144 5.01309583 0 4 C0 2.68 0 1.36 0 0 Z " fill="#C2E4A2" transform="translate(120,158)"/>
<path d="M0 0 C2.97 0 5.94 0 9 0 C9 0.99 9 1.98 9 3 C2.25 2.25 2.25 2.25 0 0 Z " fill="#D7ECC7" transform="translate(115,169)"/>
<path d="M0 0 C0.33 0 0.66 0 1 0 C1.21278058 4.46839215 0.59138085 7.82262526 -1 12 C-1.33 12 -1.66 12 -2 12 C-2.05422947 10.5629191 -2.09289723 9.12524538 -2.125 7.6875 C-2.14820312 6.88699219 -2.17140625 6.08648437 -2.1953125 5.26171875 C-2 3 -2 3 0 0 Z " fill="#6AAF29" transform="translate(115,146)"/>
<path d="M0 0 C1.32 0.33 2.64 0.66 4 1 C3.01 1.33 2.02 1.66 1 2 C-0.22520264 5.00847418 -0.22520264 5.00847418 -1 8 C-1.66 8 -2.32 8 -3 8 C-3.33 6.68 -3.66 5.36 -4 4 C-3.34 4 -2.68 4 -2 4 C-1.34 2.68 -0.68 1.36 0 0 Z " fill="#B5DD8D" transform="translate(65,81)"/>
<path d="M0 0 C0 0.66 0 1.32 0 2 C-3.3 2.33 -6.6 2.66 -10 3 C-8.0130571 -0.97388579 -3.91761109 -0.08705802 0 0 Z " fill="#CCE8B3" transform="translate(90,19)"/>
<path d="M0 0 C2.52259061 1.97420135 2.9929808 2.96745642 3.6875 6.1875 C3.790625 7.115625 3.89375 8.04375 4 9 C3.67 8.01 3.34 7.02 3 6 C2.01 6 1.02 6 0 6 C0 4.02 0 2.04 0 0 Z " fill="#6CB129" transform="translate(108,73)"/>
<path d="M0 0 C1.98 0 3.96 0 6 0 C6 0.66 6 1.32 6 2 C6.66 2.33 7.32 2.66 8 3 C8 3.66 8 4.32 8 5 C6.0625 4.625 6.0625 4.625 4 4 C3.67 3.34 3.34 2.68 3 2 C2.01 1.34 1.02 0.68 0 0 Z " fill="#76BE30" transform="translate(137,47)"/>
<path d="M0 0 C0.99 0.33 1.98 0.66 3 1 C2 4 2 4 -1 6 C-1.99 5.67 -2.98 5.34 -4 5 C-3.01 4.67 -2.02 4.34 -1 4 C-0.26676204 1.98491642 -0.26676204 1.98491642 0 0 Z " fill="#85D537" transform="translate(111,15)"/>
</svg>
